<svg id="Layer_1" data-name="Layer 1" xmlns="http://www.w3.org/2000/svg" viewBox="0 0 381.7 104.6"><title>cam-base</title><path d="M352.3,100.8c1.6.9,3.2,1.8,4.7,2.6A16.61,16.61,0,0,1,352.3,100.8Z"/><path d="M379.5,77.8a.1.1,0,0,0-.1-.1Z"/><path d="M190.5,67.4c65.9,0,124.5,13.1,161.8,33.4,1.6.9,3.2,1.8,4.7,2.6a17.47,17.47,0,0,0,6.5,1.2,18.2,18.2,0,0,0,18.2-18.2,18,18,0,0,0-2.2-8.6.1.1,0,0,0-.1-.1C361.6,44.5,329,17,288,0a224.31,224.31,0,0,1-97.5,22.2h.7A224.31,224.31,0,0,1,93.7,0C52.6,17,20.1,44.5,2.3,77.7a.1.1,0,0,1-.1.1A18,18,0,0,0,0,86.4a18.2,18.2,0,0,0,18.2,18.2,17.47,17.47,0,0,0,6.5-1.2c1.5-.9,3.1-1.8,4.7-2.6,37.3-20.3,95.9-33.4,161.8-33.4"/></svg>